<svg width="32" height="32" viewBox="0 0 32 32" fill="none" xmlns="http://www.w3.org/2000/svg">
<path d="M15.9999 0.640236C7.51669 0.640236 0.639893 7.51704 0.639893 16.0002C0.639893 24.4834 7.51669 31.3602 15.9999 31.3602C24.4831 31.3602 31.3599 24.4834 31.3599 16.0002C31.3599 7.51704 24.4831 0.640236 15.9999 0.640236ZM22.2479 13.2226C22.2543 13.3538 22.2559 13.485 22.2559 13.613C22.2559 17.613 19.2143 22.2226 13.6495 22.2226C12.0052 22.2254 10.395 21.7531 9.01269 20.8626C9.24789 20.8914 9.48949 20.9026 9.73429 20.9026C11.1519 20.9026 12.4559 20.421 13.4911 19.6082C12.8602 19.5958 12.249 19.387 11.7425 19.0107C11.236 18.6344 10.8595 18.1094 10.6655 17.509C11.1185 17.5952 11.5853 17.5771 12.0303 17.4562C11.3456 17.3178 10.7298 16.9468 10.2874 16.4061C9.84504 15.8654 9.60326 15.1884 9.60309 14.4898V14.453C10.0111 14.6786 10.4783 14.8162 10.9743 14.8322C10.3324 14.4049 9.87795 13.7485 9.70397 12.9972C9.52998 12.246 9.64958 11.4566 10.0383 10.7906C10.7982 11.725 11.7459 12.4894 12.82 13.0343C13.8941 13.5792 15.0707 13.8925 16.2735 13.9538C16.1206 13.3047 16.1864 12.6233 16.4607 12.0154C16.735 11.4076 17.2025 10.9074 17.7904 10.5927C18.3783 10.2779 19.0538 10.1662 19.7117 10.2749C20.3697 10.3836 20.9733 10.7067 21.4287 11.1938C22.1058 11.0599 22.7551 10.8115 23.3487 10.4594C23.123 11.1605 22.6506 11.7557 22.0191 12.1346C22.6189 12.0624 23.2045 11.9012 23.7567 11.6562C23.3511 12.2641 22.8401 12.7945 22.2479 13.2226Z" fill="#DFE0EB"/>
</svg>
