<svg width="123" height="75" viewBox="0 0 123 75" fill="none" xmlns="http://www.w3.org/2000/svg">
<path d="M10.344 36.9167L0.376147 19.4296H9.59175L15.2339 29.3389L21.2523 19.4296H30.4679L20.1239 36.9167L30.844 54.7923H21.4404L15.2339 44.3001L9.2156 54.7923H0L10.344 36.9167Z" fill="#EDC468"/>
<path d="M65.6375 36.9167L55.6696 19.4296H64.8852L70.5274 29.3389L76.5458 19.4296H85.7614L75.4173 36.9167L86.1375 54.7923H76.7338L70.5274 44.3001L64.5091 54.7923H55.2935L65.6375 36.9167Z" fill="#EDC468"/>
<path fill-rule="evenodd" clip-rule="evenodd" d="M107.202 55.5698C115.927 55.5698 123 48.7693 123 37.1113C123 25.4533 115.927 18.6528 107.202 18.6528C98.4769 18.6528 91.4038 25.8419 91.4038 37.1113C91.4038 49.3522 98.4769 55.5698 107.202 55.5698ZM107.202 48.1858C111.565 48.1858 115.101 43.2273 115.101 37.1107C115.101 30.9941 111.565 26.0356 107.202 26.0356C102.839 26.0356 99.3029 30.9941 99.3029 37.1107C99.3029 43.2273 102.839 48.1858 107.202 48.1858Z" fill="#EDC468"/>
<rect x="38.7432" y="60.6225" width="7.8991" height="14.3782" fill="#EDC469"/>
<rect x="38.7432" y="60.6225" width="7.8991" height="14.3782" fill="#EDC469"/>
<rect x="103.44" y="60.6225" width="7.89909" height="14.3782" fill="#EDC469"/>
<rect x="103.44" y="60.6225" width="7.89909" height="14.3782" fill="#EDC469"/>
<rect x="38.7432" width="7.8991" height="14.3782" fill="#EDC469"/>
<rect x="38.7432" width="7.8991" height="14.3782" fill="#EDC469"/>
<rect x="38.7432" y="19.4296" width="7.8991" height="35.3627" fill="#EDC469"/>
<rect x="38.7432" y="19.4296" width="7.8991" height="35.3627" fill="#EDC469"/>
<rect x="103.44" width="7.89909" height="14.3782" fill="#EDC469"/>
<rect x="103.44" width="7.89909" height="14.3782" fill="#EDC469"/>
<rect x="111.339" width="8.16062" height="72.5963" transform="rotate(90 111.339 0)" fill="#EDC469"/>
<rect x="111.339" width="8.16062" height="72.5963" transform="rotate(90 111.339 0)" fill="#EDC469"/>
<rect x="111.339" y="66.8391" width="8.16064" height="72.5963" transform="rotate(90 111.339 66.8391)" fill="#EDC469"/>
<rect x="111.339" y="66.8391" width="8.16064" height="72.5963" transform="rotate(90 111.339 66.8391)" fill="#EDC469"/>
</svg>
