<svg width="32" height="32" viewBox="0 0 32 32" fill="none" xmlns="http://www.w3.org/2000/svg">
<path d="M15.9999 0.640236C7.51669 0.640236 0.639893 7.51704 0.639893 16.0002C0.639893 24.4834 7.51669 31.3602 15.9999 31.3602C24.4831 31.3602 31.3599 24.4834 31.3599 16.0002C31.3599 7.51704 24.4831 0.640236 15.9999 0.640236ZM12.2399 22.3666H9.12949V12.357H12.2399V22.3666ZM10.6655 11.1282C9.68309 11.1282 9.04789 10.4322 9.04789 9.57144C9.04789 8.69304 9.70229 8.01784 10.7055 8.01784C11.7087 8.01784 12.3231 8.69304 12.3423 9.57144C12.3423 10.4322 11.7087 11.1282 10.6655 11.1282ZM23.5999 22.3666H20.4895V16.8194C20.4895 15.5282 20.0383 14.6514 18.9135 14.6514C18.0543 14.6514 17.5439 15.245 17.3183 15.8162C17.2351 16.0194 17.2143 16.3074 17.2143 16.5938V22.365H14.1023V15.549C14.1023 14.2994 14.0623 13.2546 14.0207 12.3554H16.7231L16.8655 13.7458H16.9279C17.3375 13.093 18.3407 12.1298 20.0191 12.1298C22.0655 12.1298 23.5999 13.501 23.5999 16.4482V22.3666Z" fill="#DFE0EB"/>
</svg>
