<svg width="230" height="273" viewBox="0 0 230 273" fill="none" xmlns="http://www.w3.org/2000/svg">
<rect x="230" y="272.435" width="12.3344" height="44.2587" transform="rotate(-180 230 272.435)" fill="#EDC469"/>
<rect x="230" y="272.435" width="12.3344" height="44.2587" transform="rotate(-180 230 272.435)" fill="#EDC469"/>
<rect x="17.4131" y="272.435" width="12.3344" height="44.2587" transform="rotate(-180 17.4131 272.435)" fill="#EDC469"/>
<rect x="17.4131" y="272.435" width="12.3344" height="44.2587" transform="rotate(-180 17.4131 272.435)" fill="#EDC469"/>
<rect x="5.07861" y="272.435" width="12.3344" height="224.921" transform="rotate(-90 5.07861 272.435)" fill="#EDC469"/>
<rect x="5.07861" y="272.435" width="12.3344" height="224.921" transform="rotate(-90 5.07861 272.435)" fill="#EDC469"/>
<rect x="5.07959" y="43.8864" width="12.3344" height="44.2587" fill="#EDC469"/>
<rect x="5.07959" y="43.8864" width="12.3344" height="44.2587" fill="#EDC469"/>
<rect x="217.666" y="43.8863" width="12.3344" height="44.2587" fill="#EDC469"/>
<rect x="217.666" y="43.8863" width="12.3344" height="44.2587" fill="#EDC469"/>
<rect x="230" y="43.8863" width="12.3344" height="224.921" transform="rotate(90 230 43.8863)" fill="#EDC469"/>
<rect x="230" y="43.8863" width="12.3344" height="224.921" transform="rotate(90 230 43.8863)" fill="#EDC469"/>
<path fill-rule="evenodd" clip-rule="evenodd" d="M8.64224 191.752C11.2832 193.072 17.2081 193.408 20.1265 193.408C30.6532 193.408 42.3415 185.829 49.8967 179.214C52.4729 176.958 60.6647 166.666 60.6647 166.666C60.6647 166.666 60.1992 177.248 59.9442 179.033C59.1354 184.699 57.5507 197.792 55.9448 205.825C54.2021 214.55 46.8933 234.491 44.5402 243.126C43.4318 247.193 41.0523 253.462 40.2359 257.547C39.2241 262.605 37.8394 267.501 36.6107 272.42C36.6095 272.425 36.6075 272.434 36.6062 272.439H82.0217C82.4703 271.16 82.9116 270.032 83.271 269.373C84.4943 267.128 85.3402 264.839 86.3487 262.484C88.8196 256.715 91.2767 250.896 93.3938 244.965C94.4629 241.968 95.818 238.891 96.5958 235.777C96.9402 234.401 97.6981 261.635 98.4644 270.833C98.4977 271.234 98.5638 271.793 98.6494 272.439H175.722C175.248 268.45 174.751 264.323 174.675 263.92C174.609 263.571 174.077 261.018 174.077 261.018C174.858 260.822 176.333 263.091 179.51 264.151C182.688 265.211 190.929 264.7 195.008 261.842C197.348 260.203 201.109 256.852 202.578 254.428C208.63 244.453 211.857 231.778 213.791 220.558C214.3 217.602 214.911 213.657 215.56 210.731C215.766 209.804 215.431 207.549 215.617 206.617C215.744 205.985 199.026 219.335 196.716 215.481C194.954 212.543 195.139 207.845 195.434 204.586C195.851 200.008 197.681 195.59 198.636 191.126C200.836 180.854 205.013 170.764 208.67 161.002C210.558 155.963 214.026 154.568 214.904 149.301C215.628 144.953 214.689 134.967 213.565 130.463C212.308 125.431 207.271 121.707 203.011 119.27C198.48 116.679 193.463 114.924 188.834 112.649C184.424 110.481 179.696 107.135 174.815 104.012C170.562 101.291 167.085 95.5461 164.293 92.752C162.563 91.0204 160.079 89.1771 160.079 89.1771C160.079 89.1771 158.859 85.2853 156.547 83.4346C155.987 82.9859 152.735 80.2619 152.735 80.2619C152.735 80.2619 151.051 81.868 150.85 83.1133C150.543 85.0183 152.292 87.9251 152.099 89.8579C151.627 94.5867 150.067 99.3983 148.257 103.745C144.364 113.094 140.62 122.45 136.088 131.519C132.575 138.551 127.879 145.04 123.707 151.602C118.951 159.081 113.09 166.567 109.618 174.675C108.716 176.782 107.139 130.865 108.124 118.06C108.449 113.829 107.655 109.456 108.124 105.241C109.084 96.5852 110.812 87.8337 113.887 79.6037C114.087 79.0697 113.839 75.9118 113.839 75.9118C113.839 75.9118 112.624 76.4701 111.572 77.654C110.289 79.1004 107.663 83.4411 107.663 83.4411C107.663 83.4411 105.944 83.5867 104.723 84.2026C101.789 85.683 98.5406 87.7369 95.5563 88.857C90.5093 90.7513 88.4475 90.7576 83.1877 91.6352C79.6402 92.2265 72.8427 91.9777 69.2675 92.8202C64.4108 93.9635 60.4307 94.1497 56.1041 99.0974C51.1983 104.709 45.7835 114.693 42.4305 121.403C41.1096 124.048 38.5662 127.387 37.2495 130.023C37.0901 130.342 34.6361 132.99 34.6361 132.99C34.6361 132.99 35.1143 128.312 35.1143 127.032C35.1143 122.578 36.9137 115.21 37.4163 110.82C37.7351 108.038 38.2144 104.222 37.2887 103.604C36.1516 102.844 31.4275 109.525 30.4179 109.727C28.5804 110.095 25.9023 110.256 24.0136 109.941C19.6679 109.216 15.655 107.18 11.6325 105.455C10.4623 104.953 10.1563 101.654 8.95531 102.47C6.15387 104.374 6.5662 105.282 5.94672 107.143C5.24942 109.237 6.12217 112.444 5.47044 115.477C4.58743 119.589 3.39494 126.575 2.97307 129.536C1.75518 138.066 0.934672 145.198 0.827312 152.884C0.789124 155.61 0.684829 161.142 0.57765 163.288C0.47029 165.433 0.260972 174.492 0.649881 178.385C1.3261 185.15 2.19003 188.522 8.64224 191.752Z" fill="#4C5AB4"/>
<path fill-rule="evenodd" clip-rule="evenodd" d="M34.8348 93.8353C34.8348 93.8353 36.0028 90.3051 36.5819 88.9523C38.0985 85.4115 41.6725 82.9439 44.0256 79.7733C45.8302 77.3409 48.7836 68.5395 48.7836 68.5395C48.7836 68.5395 51.4139 69.1947 53.0207 67.6419C54.5182 66.1932 56.8861 63.0492 56.4492 60.8677C56.2761 59.9987 54.7201 59.1085 54.7201 59.1085C54.7201 59.1085 54.9741 56.5154 54.1271 55.9187C52.4564 54.7402 46.5624 51.7631 45.456 50.9324C43.815 49.7007 39.3558 47.3023 39.3558 47.3023C39.3558 47.3023 37.5236 45.1614 36.6086 44.7804C35.4469 44.2977 33.4894 45.657 31.8538 46.6472C29.9663 47.7905 28.4073 48.7074 27.3445 50.0368C26.2201 51.443 26.1734 53.2555 25.8746 54.554C25.3835 56.6908 25.0467 58.4276 24.2847 62.0077C23.2688 66.7876 21.698 72.7364 19.9487 77.0484C18.2461 81.2466 16.3567 83.8076 15.9591 88.5768C15.8943 89.3617 15.7849 90.6626 15.7849 90.6626C15.7849 90.6626 17.6012 94.9586 20.0285 96.1944C23.2954 97.858 27.6676 96.5306 30.2077 95.8944C31.5093 95.569 34.8348 93.8353 34.8348 93.8353Z" fill="#E4F5F9"/>
<path fill-rule="evenodd" clip-rule="evenodd" d="M193.255 198.265C193.255 198.265 193.761 194.877 193.465 191.734C193.217 189.094 192.229 186.817 191.63 185.019C191.082 183.376 190.449 181.283 189.922 179.91C189.458 178.704 189.922 171.195 189.922 171.195C189.922 171.195 187.367 171.319 186.891 169.89C186.354 168.277 185.875 166.001 185.817 164.132C185.702 160.369 189.385 159.102 189.385 159.102C189.385 159.102 190.183 154.834 191.558 154.189C193.329 153.36 197.019 153.766 197.019 153.766C197.019 153.766 197.446 150.73 199.222 150.086C200.78 149.521 204.192 149.811 204.192 149.811C204.192 149.811 205.457 146.635 209.179 147.009C211.558 147.246 214.091 148.573 216.046 150.041C218.343 151.765 221.994 152.719 223.104 155.685C224.889 160.446 222.864 162.289 221.149 166.78C220.151 169.391 217.883 174.814 216.929 178.875C215.438 185.215 215 197.449 215 197.449C215 197.449 207.957 205.138 205.129 205.847C203.463 206.264 198.362 207.851 198.362 207.851L193.255 198.265Z" fill="#E4F5F9"/>
<path fill-rule="evenodd" clip-rule="evenodd" d="M124.036 129.778C122.781 130.428 123.439 122.166 123.574 120.849C124.193 114.811 125.669 107.593 122.824 101.899C121.191 98.6312 117.981 95.7989 116.825 92.3292C116.285 90.7062 114.671 88.0269 114.671 88.0269C114.671 88.0269 114.408 78.0565 113.706 74.7625C113.004 71.4685 112.827 69.5774 111.38 67.6469C110.545 66.5323 108.566 65.9868 106.807 64.5114C105.687 63.5721 104.525 61.681 104.226 60.8833C103.357 58.5615 102.916 55.5439 103.684 53.6529C104.312 52.1033 106.114 51.4395 106.114 51.4395C106.114 51.4395 108.115 41.2576 111.2 37.7285C113.172 35.4736 116.383 30.4129 118.471 28.3229C124.203 22.5869 130.943 21.0989 139.135 20.2788C144.338 19.7587 149.469 23.4208 152.633 27.2211C154.334 29.2622 156.531 30.9629 158.259 33.0381C162.161 37.7244 162.426 53.2147 162.426 53.2147C162.426 53.2147 163.73 54.371 163.93 55.4303C164.13 56.4896 163.451 59.6295 162.775 61.4196C161.576 64.5956 158.508 66.2677 158.508 66.2677C158.508 66.2677 156.651 72.5164 155.105 75.6837C152.888 80.2265 151.088 82.3642 151.088 82.3642C151.088 82.3642 150.706 85.0626 150.776 87.9918C150.845 90.9209 151.365 94.0788 151.365 94.0788C151.365 94.0788 140.86 107.318 136.323 113.157C132.871 117.599 130.093 122.769 126.199 126.666C125.423 127.443 125.112 129.221 124.036 129.778Z" fill="#E4F5F9"/>
<path fill-rule="evenodd" clip-rule="evenodd" d="M144.556 72.5843C144.469 70.9729 141.549 70.8974 140.045 70.7144C138.541 70.5325 132.39 70.6686 130.43 71.2165C128.872 71.6515 128.76 73.1979 129.2 74.9562C129.544 76.3293 131.264 78.2682 132.253 79.0596C135.035 81.2879 138.799 81.0847 141.354 79.032C143.233 77.5217 144.683 74.9243 144.556 72.5843Z" fill="white"/>
<path fill-rule="evenodd" clip-rule="evenodd" d="M114.217 79.0266C114.217 79.0266 113.292 79.0031 112.611 80.5029C111.596 82.7343 109.929 86.825 109.929 86.825C109.929 86.825 108.692 92.395 108.445 94.9542C108.197 97.5122 107.638 104.733 107.291 107.869C106.789 112.382 107.223 117.925 106.957 122.459C106.548 129.421 106.661 138.57 106.366 143.89C106.071 149.212 106.208 156.563 106.208 162.995C106.208 169.754 105.908 188.401 105.908 188.401C105.908 188.401 109.057 180.149 110.655 176.349C112.709 171.468 115.167 166.607 118.402 162.445C122.84 156.733 126.721 149.887 130.16 144.903C134.337 138.85 138.044 132.842 141.638 126.686C144.733 121.388 147.884 113.926 150.622 108.446C152.866 103.954 155.115 92.1486 155.115 92.1486L153.384 87.6921C153.384 87.6921 151.478 84.2258 150.828 84.2258C150.72 84.2258 150.723 86.2946 150.856 88.7599C150.963 90.7383 151.199 93.2207 151.199 93.2207C151.199 93.2207 148.375 96.9647 146.581 98.4612C141.809 102.44 134.335 102.96 131.038 108.24C128.826 111.781 128.276 116.699 127.905 117.812C127.092 120.25 125.283 127.979 124.538 128.352C123.93 128.656 123.934 127.624 123.888 127.44C123.558 126.119 123.328 123.702 123.328 122.31C123.328 116.523 125.761 112.983 125.761 107.167C125.761 106.134 125.679 103.742 125.225 102.505C124.771 101.267 121.554 97.4284 120.072 95.9445C118.128 93.9991 117.328 92.5932 115.948 90.2914C114.601 88.0451 114.217 85.52 114.217 82.7812V79.0266Z" fill="white"/>
<path fill-rule="evenodd" clip-rule="evenodd" d="M98.7198 272.44C98.4494 270.393 98.2165 268.602 98.1734 268.043C97.708 261.975 97.0788 256.246 97.0788 250.153C97.0788 245.9 97.1575 241.798 97.1575 237.547C97.1575 236.142 97.1341 231.205 96.9608 231.4C96.7419 231.648 91.6299 244.922 89.1664 250.558C86.9154 255.707 85.1874 261.975 83.7791 266.281C83.1157 268.31 82.299 270.367 81.7627 272.44H98.7198Z" fill="white"/>
<path fill-rule="evenodd" clip-rule="evenodd" d="M9.75659 105.61C9.75659 105.61 10.981 99.9682 11.2742 98.1663C11.5176 96.6772 11.8373 94.602 12.2509 93.1546C12.5539 92.0909 13.4284 88.8076 14.5836 88.2938C15.2202 88.0098 15.4052 89.4 15.7974 89.7913C16.96 90.9559 19.9559 95.7965 19.9559 95.7965C19.9559 95.7965 21.8466 93.8692 22.9912 93.6406C24.2177 93.3949 28.4761 94.1894 31.574 94.2617C33.1652 94.2999 34.8294 93.6096 34.8294 93.6096L36.4384 89.2658C36.4384 89.2658 38.0165 90.389 38.0473 91.8175C38.0781 93.2449 37.0175 97.61 36.6509 99.1989C36.2056 101.129 34.8602 108.252 34.8602 108.252C34.8602 108.252 32.724 109.883 29.8141 110.8C26.8331 111.739 23.0496 111.959 20.5563 111.46C18.9919 111.147 17.5636 110.524 16.0768 109.966C14.2041 109.263 12.4633 108.15 10.9435 106.883C10.5121 106.523 9.75659 105.61 9.75659 105.61Z" fill="white"/>
<path fill-rule="evenodd" clip-rule="evenodd" d="M187.827 210.122C187.827 210.122 190.411 197.586 191.197 195.673C191.693 194.467 192.877 192.476 193.183 192.833C194.237 194.063 193.255 198.478 193.255 198.478C193.255 198.478 196.454 201.999 197.653 203.2C198.097 203.644 198.434 206.927 198.434 206.927C198.434 206.927 201.862 205.291 202.797 204.833C206.202 203.164 211.024 200.69 213.829 198.443C214.543 197.871 215.375 195.432 216.487 195.21C216.878 195.131 216.237 196.343 216.218 196.422C216.052 197.085 215.931 199.147 215.78 199.828C215.34 201.809 213.935 209.164 213.935 209.164C213.935 209.164 213.651 209.413 212.623 210.797C211.594 212.182 208.799 214.206 207.029 216.412C205.615 218.173 204.677 219.922 204.677 219.922C204.677 219.922 201.393 221.965 198.966 221.804C194.811 221.526 191.847 219.111 190.381 215.626C189.992 214.701 187.827 210.122 187.827 210.122Z" fill="white"/>
<path fill-rule="evenodd" clip-rule="evenodd" d="M105.863 51.3279C105.863 51.3279 103.155 41.5832 102.711 38.4422C101.959 33.1275 102.719 31.5234 102.927 26.5266C103.314 17.2242 106.634 11.3168 114.673 7.29432C117.228 6.0158 119.824 7.08574 122.421 6.30946C126.201 5.17985 128.656 1.83589 132.309 1.02536C135.632 0.288388 140.144 1.98264 143.703 2.87284C145.658 3.36212 149.629 5.70734 151.307 6.96568C154.084 9.0504 155.893 9.72049 158.332 12.1614C160.765 14.5961 164.08 18.1773 165.305 21.449C168.064 28.8102 166.326 35.6364 164.729 43.2253C164.289 45.3133 162.37 53.1958 162.37 53.1958L160.22 53.301C160.22 53.301 160.051 48.3946 160.01 47.9479C159.735 44.9198 159.328 38.8178 159.328 38.8178C159.328 38.8178 152.714 37.1628 150.563 35.3685C147.523 32.8329 145.877 27.9456 142.752 25.4441C140.447 23.5975 136.366 25.6271 132.325 25.5609C129.796 25.5184 127.627 25.0451 125.853 25.3408C118.451 26.5757 118.62 34.9474 117.301 40.7579C116.27 45.2951 115.085 49.8837 112.069 51.612C109.449 53.1139 105.863 51.3279 105.863 51.3279Z" fill="#135686"/>
<path d="M193.409 198.856C193.116 198.856 192.878 198.619 192.878 198.325C192.878 197.122 192.922 196.145 192.963 195.27C193.066 193.034 193.134 191.556 192.356 188.637C191.975 187.205 191.497 186.016 191.037 184.867C190.307 183.049 189.618 181.332 189.308 178.807C189.084 176.993 189.188 175.204 189.289 173.472C189.42 171.221 189.555 168.893 189.002 166.367C188.939 166.079 189.121 165.795 189.407 165.733C189.699 165.669 189.978 165.852 190.04 166.138C190.625 168.808 190.485 171.211 190.35 173.534C190.248 175.295 190.15 176.959 190.362 178.677C190.656 181.064 191.32 182.718 192.023 184.471C192.496 185.648 192.985 186.868 193.383 188.363C194.203 191.44 194.129 193.067 194.025 195.319C193.985 196.18 193.941 197.141 193.941 198.325C193.941 198.619 193.703 198.856 193.409 198.856Z" fill="#383B54"/>
<path d="M187.895 171.418C187.887 171.418 187.877 171.418 187.869 171.416C186.279 171.339 185.704 168.672 185.41 166.673C184.977 163.772 184.988 160.666 188.242 158.858C189.276 158.287 193.542 159.031 194.826 159.273C195.296 159.362 195.734 159.436 196.141 159.505C197.819 159.79 199.031 159.995 199.914 160.788C200.49 161.305 200.71 162.065 200.943 162.871C201.17 163.652 201.427 164.537 202.053 165.332C202.234 165.562 202.195 165.897 201.965 166.079C201.734 166.259 201.4 166.221 201.218 165.991C200.464 165.033 200.164 163.998 199.923 163.167C199.725 162.484 199.554 161.893 199.204 161.579C198.551 160.992 197.521 160.818 195.964 160.554C195.551 160.483 195.106 160.408 194.629 160.318C191.51 159.73 189.154 159.585 188.758 159.788C186.228 161.194 186.004 163.454 186.446 166.413C186.993 170.128 187.771 170.347 187.921 170.355C188.215 170.368 188.44 170.619 188.426 170.912C188.412 171.196 188.177 171.418 187.895 171.418Z" fill="#383B54"/>
<path d="M209.119 161.26C208.855 161.26 208.626 161.063 208.593 160.794C208.117 156.948 205.65 156.46 202.795 155.897C202.235 155.787 201.671 155.675 201.121 155.538C200.701 155.432 200.255 155.311 199.791 155.183C196.499 154.28 192.399 153.154 190.454 156.237C190.12 156.767 190.033 157.332 189.932 157.986C189.896 158.223 189.859 158.464 189.809 158.711C189.75 159 189.467 159.187 189.183 159.128C188.895 159.07 188.709 158.789 188.767 158.501C188.813 158.271 188.848 158.045 188.882 157.824C188.991 157.117 189.103 156.386 189.556 155.669C191.92 151.921 196.632 153.214 200.072 154.158C200.528 154.282 200.967 154.403 201.379 154.506C201.912 154.64 202.458 154.747 203.001 154.854C205.849 155.415 209.078 156.053 209.647 160.663C209.684 160.955 209.477 161.22 209.185 161.256C209.164 161.259 209.141 161.26 209.119 161.26Z" fill="#383B54"/>
<path d="M217.292 156.466C217.055 156.466 216.84 156.308 216.778 156.068C216.085 153.413 213.209 152.846 210.672 152.346C210.377 152.289 210.088 152.232 209.809 152.173C208.927 151.987 207.979 151.694 206.977 151.383C203.044 150.165 198.976 148.907 197.458 153.469C197.365 153.747 197.064 153.9 196.786 153.805C196.507 153.712 196.357 153.411 196.449 153.132C198.298 147.583 203.285 149.126 207.291 150.367C208.27 150.67 209.193 150.956 210.028 151.132C210.303 151.19 210.587 151.246 210.877 151.303C213.58 151.835 216.944 152.497 217.805 155.799C217.88 156.083 217.71 156.374 217.425 156.448C217.381 156.46 217.335 156.466 217.292 156.466Z" fill="#383B54"/>
<path d="M214.859 197.476C214.852 197.476 214.845 197.476 214.836 197.476C214.544 197.463 214.316 197.215 214.328 196.921C214.355 196.287 215.019 181.277 218.086 172.833C218.988 170.35 220.021 167.873 221.021 165.479L221.653 163.965C222.55 161.828 223.478 159.619 223.008 157.427C222.357 154.386 219.872 152.995 217.241 151.524C216.659 151.197 216.076 150.872 215.515 150.528C215.087 150.268 214.67 149.991 214.254 149.715C212.952 148.852 211.722 148.036 210.239 147.728C208.398 147.345 205.4 147.542 204.692 149.669C204.599 149.948 204.299 150.101 204.02 150.006C203.742 149.912 203.591 149.611 203.683 149.333C204.61 146.548 208.244 146.222 210.456 146.687C212.138 147.037 213.512 147.948 214.842 148.828C215.246 149.097 215.653 149.366 216.069 149.621C216.619 149.957 217.189 150.276 217.759 150.595C220.481 152.117 223.296 153.692 224.048 157.205C224.586 159.723 223.549 162.195 222.633 164.376L222.002 165.888C221.007 168.272 219.978 170.737 219.084 173.197C216.074 181.486 215.397 196.812 215.391 196.967C215.378 197.253 215.142 197.476 214.859 197.476Z" fill="#383B54"/>
<path d="M34.7531 94.1944C34.7023 94.1944 34.6505 94.187 34.5991 94.1715C34.3183 94.0863 34.1596 93.7894 34.2446 93.5088C34.3042 93.3104 35.7386 88.6136 37.9413 85.471C38.7235 84.3538 39.6901 83.4232 40.6253 82.5228C41.192 81.9769 41.7784 81.4124 42.3072 80.8199C43.9081 79.0259 45.3902 76.3333 46.1752 73.7921C46.2588 73.5215 46.3476 73.2203 46.4435 72.8969C47.3313 69.8945 48.8182 64.8688 52.0069 64.0638C52.2919 63.9921 52.5803 64.1646 52.652 64.4496C52.7236 64.7343 52.5513 65.0234 52.2665 65.0952C49.6652 65.7516 48.2862 70.4137 47.4628 73.199C47.3657 73.5267 47.2755 73.8321 47.1903 74.1063C46.3507 76.8246 44.8214 79.5994 43.1 81.5282C42.5443 82.1508 41.9434 82.7294 41.3621 83.2893C40.4223 84.1945 39.5344 85.0488 38.8115 86.0818C36.7078 89.083 35.2755 93.7697 35.2615 93.8164C35.1921 94.0457 34.9815 94.1944 34.7531 94.1944Z" fill="#383B54"/>
<path d="M51.1223 69.0571C50.9323 69.0571 50.7477 69.0312 50.567 68.9792C50.2852 68.8972 50.1228 68.6023 50.2042 68.3202C50.2856 68.0382 50.5794 67.8761 50.8628 67.9571C51.3605 68.102 51.9551 67.7707 52.3656 67.4669C54.1257 66.1689 55.9503 62.9127 55.9768 61.5203C55.9933 60.6618 54.625 59.6393 52.4049 58.8509C51.6748 58.5917 50.9845 58.102 50.3173 57.6285C49.3149 56.9169 48.3657 56.2465 47.5069 56.4833C46.6952 56.7072 46.1301 57.3054 45.5322 57.9391C44.9672 58.5374 44.3828 59.1563 43.5515 59.5089C43.2838 59.6221 42.9702 59.4981 42.8551 59.2264C42.7409 58.9564 42.867 58.6443 43.1374 58.5295C43.7631 58.2641 44.2473 57.7516 44.7595 57.2088C45.4315 56.4967 46.1263 55.7602 47.2239 55.4581C48.5709 55.0878 49.7713 55.9369 50.9316 56.7606C51.5397 57.1922 52.1687 57.6389 52.7597 57.8488C54.7311 58.5488 57.0743 59.7579 57.0394 61.5406C57.0071 63.2239 55.041 66.815 52.9959 68.3227C52.3336 68.8114 51.7056 69.0571 51.1223 69.0571Z" fill="#383B54"/>
<path d="M54.7361 59.185C54.7141 59.185 54.692 59.1833 54.6697 59.1808C54.3786 59.1444 54.1719 58.8785 54.2083 58.5872C54.4798 56.4126 52.8114 55.5188 50.2349 54.4038L49.77 54.2017C49.1514 53.9297 48.5682 53.5699 47.9501 53.1886C46.5552 52.3285 45.113 51.4388 42.9496 51.3184C42.3164 51.2805 41.551 52.216 40.8111 53.1184C40.0363 54.0633 39.2351 55.0395 38.2148 55.5345C37.9505 55.6632 37.6326 55.5527 37.5049 55.2883C37.3768 55.024 37.4867 54.7056 37.7508 54.5778C38.5614 54.1841 39.2873 53.2991 39.9895 52.4438C40.9389 51.2857 41.845 50.1873 43.008 50.2569C45.4412 50.3919 47.0702 51.3963 48.5071 52.2829C49.0929 52.6443 49.6461 52.9854 50.1973 53.228L50.6565 53.4274C52.8827 54.3914 55.6534 55.5906 55.2625 58.7189C55.2291 58.9881 55.0002 59.185 54.7361 59.185Z" fill="#383B54"/>
<path d="M32.1362 52.6609C31.9815 52.6609 31.8289 52.5938 31.7235 52.4651C31.5383 52.2376 31.5726 51.9026 31.7999 51.7166C32.4199 51.2107 33.052 50.506 33.7214 49.7599C34.7717 48.5882 35.8583 47.3766 37.053 46.7871C38.0307 46.3036 39.3659 46.9158 40.2491 47.3203L40.5168 47.4413C43.0367 48.55 46.6687 51.1597 46.8216 51.2704C47.0599 51.4424 47.1138 51.7741 46.9425 52.0126C46.7701 52.2509 46.4392 52.3039 46.2009 52.1336C46.164 52.1071 42.5056 49.4786 40.0889 48.4152L39.8067 48.2879C39.1913 48.0059 38.0424 47.4819 37.5229 47.7404C36.512 48.2396 35.4955 49.3732 34.5122 50.4702C33.8147 51.2481 33.1556 51.9825 32.4711 52.5414C32.3729 52.622 32.254 52.6609 32.1362 52.6609Z" fill="#383B54"/>
<path d="M15.9268 90.1829C15.9108 90.1829 15.894 90.1818 15.8776 90.1807C15.5855 90.1539 15.3702 89.8941 15.397 89.6022C15.7443 85.8501 17.1625 82.6435 18.5344 79.5431C19.2454 77.9363 19.9802 76.2749 20.5687 74.5397C22.0823 70.0813 25.5359 54.5679 26.008 51.9734C26.4252 49.6768 28.2456 48.4506 30.7644 46.754C31.4693 46.2793 32.2331 45.7651 33.0404 45.1762C34.0794 44.4179 35.1815 44.1434 36.3108 44.3541C38.7217 44.807 40.3719 47.3449 40.4409 47.4525C40.5992 47.6997 40.5275 48.028 40.2805 48.1868C40.0325 48.3453 39.7039 48.2735 39.5467 48.0274C39.5321 48.0046 38.0687 45.7635 36.1113 45.399C35.2674 45.24 34.4689 45.4498 33.6662 46.0357C32.8473 46.633 32.0726 47.1549 31.358 47.6362C28.9689 49.2458 27.3902 50.3088 27.053 52.1634C26.5787 54.7725 23.1017 70.384 21.5751 74.8815C20.9711 76.6623 20.2264 78.3455 19.5055 79.9736C18.1072 83.1348 16.7859 86.1211 16.4553 89.6999C16.4301 89.9763 16.1981 90.1829 15.9268 90.1829Z" fill="#383B54"/>
<path d="M198.051 207.519C197.985 207.519 197.917 207.507 197.853 207.481C197.58 207.37 197.448 207.061 197.558 206.789C198.372 204.765 196.682 203.019 194.894 201.171C193.071 199.288 191.188 197.342 191.631 194.827C191.75 194.152 192.048 193.578 192.336 193.022L192.515 192.673C192.648 192.41 192.964 192.305 193.228 192.435C193.491 192.567 193.596 192.886 193.466 193.149L193.28 193.511C193.016 194.019 192.768 194.498 192.677 195.012C192.328 196.992 193.945 198.662 195.656 200.431C197.602 202.442 199.616 204.522 198.544 207.185C198.461 207.393 198.262 207.519 198.051 207.519Z" fill="#383B54"/>
<path d="M192.495 218.302C192.462 218.302 192.428 218.298 192.395 218.292C192.106 218.238 191.918 217.96 191.972 217.671C191.996 217.536 192.6 214.337 192.984 213.09C193.372 211.824 193.953 210.205 194.999 208.896C196.32 207.244 199.451 205.804 203.077 204.138L204.547 203.46C210.352 200.76 215.943 197.77 215.045 193.523C214.985 193.235 215.168 192.953 215.455 192.892C215.737 192.839 216.024 193.014 216.085 193.302C217.145 198.313 211.188 201.544 204.996 204.423L203.52 205.105C200.163 206.647 196.993 208.105 195.829 209.561C194.894 210.729 194.36 212.227 193.998 213.402C193.633 214.593 193.022 217.835 193.016 217.868C192.968 218.124 192.745 218.302 192.495 218.302Z" fill="#383B54"/>
<path d="M213.866 209.492C213.836 209.492 213.807 209.489 213.777 209.484C213.488 209.435 213.293 209.161 213.341 208.872C213.534 207.727 213.862 206.244 214.21 204.674C215.097 200.66 216.583 193.939 215.307 193.049C215.066 192.881 215.007 192.55 215.175 192.309C215.344 192.066 215.677 192.012 215.915 192.177C217.641 193.381 216.727 198.212 215.247 204.904C214.903 206.461 214.578 207.931 214.389 209.048C214.346 209.308 214.121 209.492 213.866 209.492Z" fill="#383B54"/>
<path d="M188.08 210.092C188.045 210.092 188.01 210.089 187.975 210.081C187.687 210.024 187.501 209.744 187.558 209.456L187.729 208.585C188.183 206.271 189.127 201.457 189.933 198.416C190.967 194.505 191.941 192.507 193.087 191.933C193.351 191.802 193.668 191.91 193.8 192.171C193.93 192.434 193.824 192.754 193.562 192.885C193.001 193.166 192.095 194.399 190.96 198.688C190.163 201.696 189.224 206.488 188.772 208.789L188.6 209.664C188.549 209.917 188.328 210.092 188.08 210.092Z" fill="#383B54"/>
<path d="M199.081 222.155C198.487 222.155 197.898 222.092 197.317 221.963C194.744 221.393 192.443 219.548 190.664 216.628C187.674 211.721 184.826 206.161 188.896 202.307C189.11 202.103 189.446 202.115 189.647 202.328C189.849 202.541 189.839 202.878 189.626 203.08C186.474 206.065 188.033 210.265 191.571 216.074C193.197 218.742 195.263 220.419 197.546 220.924C199.739 221.409 202.091 220.831 204.533 219.202C204.775 219.04 205.106 219.104 205.27 219.35C205.433 219.594 205.366 219.924 205.123 220.087C203.06 221.463 201.035 222.155 199.081 222.155Z" fill="#383B54"/>
<path d="M195.437 249.868C195.355 249.868 195.273 249.849 195.196 249.81C194.935 249.677 194.83 249.357 194.964 249.095C198.965 241.227 200.225 236.17 201.442 231.279L201.48 231.128C201.839 229.691 202.156 228.234 202.463 226.827C203.223 223.35 203.94 220.065 205.069 218.087C205.905 216.624 207.311 215.332 208.671 214.083C209.542 213.283 210.364 212.527 210.998 211.766C211.307 211.394 211.641 211.03 211.978 210.661C213.502 208.998 214.941 207.428 214.666 204.755C214.636 204.463 214.848 204.203 215.141 204.172C215.409 204.136 215.693 204.353 215.723 204.647C216.046 207.794 214.301 209.699 212.762 211.38C212.436 211.736 212.113 212.088 211.813 212.448C211.135 213.262 210.287 214.041 209.389 214.866C208.09 216.06 206.745 217.296 205.993 218.614C204.944 220.451 204.243 223.658 203.502 227.055C203.192 228.472 202.872 229.938 202.511 231.386L202.474 231.537C201.241 236.485 199.966 241.602 195.91 249.577C195.817 249.762 195.63 249.868 195.437 249.868Z" fill="#383B54"/>
<path d="M183.983 265.404C182.213 265.404 180.679 265.154 179.533 264.772C173.975 262.918 170.997 258.238 168.608 253.456C163.994 244.22 163.307 234.065 166.444 221.498C167.602 216.864 168.466 208.031 168.499 200.493C168.5 200.2 168.738 199.964 169.03 199.964C169.031 199.964 169.031 199.964 169.033 199.964C169.326 199.965 169.563 200.204 169.562 200.498C169.528 208.11 168.652 217.05 167.476 221.755C164.403 234.063 165.065 243.984 169.559 252.98C171.846 257.558 174.677 262.032 179.869 263.763C184.735 265.385 196.97 264.406 203.767 251.021C210.5 237.765 212.196 227.064 213.434 219.251L213.587 218.286C213.901 216.318 214.204 214.639 214.468 213.181C215.238 208.913 215.662 206.563 215.017 204.402C214.933 204.121 215.094 203.824 215.374 203.739C215.657 203.657 215.952 203.816 216.036 204.097C216.753 206.502 216.313 208.941 215.514 213.37C215.251 214.822 214.949 216.494 214.637 218.454L214.483 219.417C213.235 227.301 211.523 238.097 204.714 251.503C199.189 262.383 190.152 265.403 183.983 265.404Z" fill="#383B54"/>
<path d="M168.555 242.711C168.271 242.711 168.035 242.486 168.024 242.2C167.704 233.869 171.879 228.69 175.916 223.683C177.987 221.114 179.943 218.688 181.291 215.883C182.676 213.001 183.672 210.422 184.472 208.35C186.096 204.145 187.076 201.608 189.324 201.608C189.618 201.608 189.856 201.846 189.856 202.14C189.856 202.434 189.618 202.671 189.324 202.671C187.805 202.671 186.924 204.953 185.463 208.733C184.656 210.823 183.651 213.424 182.248 216.345C180.848 219.26 178.761 221.848 176.743 224.351C172.829 229.207 168.782 234.227 169.087 242.158C169.097 242.452 168.869 242.699 168.576 242.711C168.569 242.711 168.562 242.711 168.555 242.711Z" fill="#383B54"/>
<path d="M214.952 149.622C214.659 149.622 214.421 149.384 214.421 149.09C214.421 148.04 214.436 146.982 214.45 145.921C214.526 140.317 214.604 134.523 212.535 129.001C211.051 125.044 206.18 122.015 202.624 119.802L201.927 119.367C199.527 117.867 196.743 116.702 193.797 115.468C190.98 114.289 188.067 113.069 185.396 111.495L184.601 111.026C179.644 108.106 176.062 105.995 171.486 101.919C169.46 100.116 167.741 98.0094 166.078 95.9737C163.831 93.2202 161.708 90.6204 159.232 89.3282C158.972 89.192 158.871 88.8712 159.007 88.6105C159.143 88.3498 159.465 88.2521 159.724 88.3851C162.393 89.779 164.583 92.4608 166.901 95.3007C168.537 97.3043 170.23 99.3775 172.192 101.126C176.69 105.131 180.235 107.22 185.14 110.109L185.936 110.579C188.544 112.116 191.423 113.322 194.207 114.487C197.195 115.738 200.017 116.919 202.49 118.465L203.185 118.898C206.872 121.192 211.92 124.332 213.53 128.627C215.67 134.338 215.59 140.233 215.513 145.934C215.498 146.992 215.484 148.045 215.484 149.09C215.484 149.384 215.246 149.622 214.952 149.622Z" fill="#383B54"/>
<path d="M170.021 195.293C169.978 195.293 169.936 195.288 169.892 195.277C169.607 195.206 169.434 194.917 169.505 194.632C174.291 175.475 186.504 148.009 200.587 132.578C200.785 132.361 201.121 132.344 201.337 132.544C201.555 132.742 201.57 133.079 201.372 133.295C187.408 148.596 175.29 175.862 170.537 194.89C170.476 195.132 170.259 195.293 170.021 195.293Z" fill="#383B54"/>
<path d="M37.0713 272.44C39.2629 262.974 43.1414 248.626 46.9413 237.665C53.1659 219.706 56.9229 205.738 58.7646 193.703C60.3444 183.378 60.9197 172.507 61.3007 165.314C61.4315 162.845 61.5347 160.894 61.6448 159.682C62.2752 152.743 62.1387 121.156 60.2685 111.175C60.215 110.887 59.9432 110.695 59.6485 110.75C59.3599 110.804 59.1701 111.082 59.2245 111.37C61.0813 121.282 61.2135 152.684 60.5861 159.586C60.4744 160.818 60.3708 162.778 60.2395 165.258C59.8596 172.43 59.2857 183.269 57.7144 193.542C55.8826 205.511 52.1405 219.421 45.9378 237.316C42.0946 248.4 38.1719 262.939 35.9814 272.44H37.0713V272.44Z" fill="#383B54"/>
<path d="M9.85127 105.678C9.81704 105.678 9.78174 105.675 9.74643 105.668C9.45894 105.61 9.27214 105.33 9.32978 105.042C9.34437 104.968 10.8175 97.6013 12.0579 92.4399C13.0371 88.3632 13.8086 87.851 14.9872 87.3545C15.2524 87.2424 15.5037 87.1364 15.7802 86.9395C16.02 86.7686 16.351 86.8257 16.5213 87.0652C16.6909 87.3046 16.6349 87.637 16.3957 87.8063C16.0237 88.0713 15.6925 88.2105 15.4003 88.3339C14.6147 88.6653 13.9945 88.927 13.0917 92.6891C11.8562 97.8306 10.3864 105.176 10.372 105.25C10.3214 105.504 10.0993 105.678 9.85127 105.678Z" fill="#383B54"/>
<path d="M18.7729 110.619C18.735 110.619 18.6967 110.615 18.6576 110.607C18.3712 110.543 18.1899 110.26 18.2534 109.973C18.2678 109.908 19.6948 103.381 19.6622 98.3024C19.6409 94.9692 17.4044 92.4929 15.9244 90.8549C14.9872 89.8174 14.3682 89.1319 14.432 88.4504C14.4594 88.1585 14.7101 87.9528 15.0109 87.9705C15.302 87.9985 15.5164 88.2561 15.4905 88.5468C15.4987 88.7983 16.1719 89.5429 16.7125 90.1412C18.3009 91.8996 20.701 94.5567 20.7248 98.2959C20.7587 103.496 19.3507 109.93 19.2911 110.201C19.2362 110.45 19.0168 110.619 18.7729 110.619Z" fill="#383B54"/>
<path d="M20.1772 96.443C20.0952 96.443 20.0122 96.4243 19.9342 96.3837C19.6733 96.2498 19.571 95.9289 19.7054 95.6682C21.3691 92.4369 24.4651 92.8835 27.744 93.3551C28.9936 93.5357 30.2852 93.7217 31.6027 93.7383C31.6427 93.7394 31.6827 93.7394 31.7227 93.7394C34.8871 93.7394 36.8289 92.1481 37.1486 91.0554C37.2949 90.5548 37.1304 90.1528 36.6592 89.8579C36.4101 89.703 36.3343 89.3749 36.4895 89.1256C36.6446 88.8763 36.9727 88.7994 37.2216 88.9563C38.0945 89.5007 38.4489 90.3981 38.1687 91.3547C37.6752 93.0385 35.2549 94.803 31.7236 94.803C31.6789 94.803 31.6342 94.803 31.5892 94.8021C30.2021 94.7845 28.8758 94.5934 27.5924 94.4084C24.4492 93.9536 21.9666 93.5963 20.6496 96.1546C20.556 96.3381 20.3697 96.443 20.1772 96.443Z" fill="#383B54"/>
<path d="M35.0871 108.256C35.0539 108.256 35.0201 108.253 34.9858 108.247C34.6978 108.19 34.5094 107.912 34.5645 107.623C34.5813 107.539 36.1897 99.1861 36.7928 96.5313C37.6408 92.7972 37.9168 90.9285 36.7881 89.9398C36.5671 89.7468 36.5447 89.4111 36.7376 89.1899C36.9313 88.9678 37.2665 88.9458 37.4875 89.1401C39.1336 90.5818 38.6899 92.9781 37.8294 96.7673C37.2301 99.4055 35.6244 107.741 35.6084 107.825C35.5594 108.08 35.3367 108.256 35.0871 108.256Z" fill="#383B54"/>
<path d="M24.1582 112.095C17.4567 112.096 13.4905 109.062 11.1044 107.238C10.1708 106.525 9.28416 105.839 8.90931 105.935C8.7697 105.965 8.64163 106.159 8.55894 106.316C8.42204 106.575 8.10032 106.674 7.84075 106.538C7.58136 106.401 7.48156 106.079 7.61865 105.819C7.89587 105.294 8.24335 104.992 8.68089 104.896C9.54428 104.706 10.4203 105.377 11.7493 106.393C14.2157 108.279 17.9702 111.136 24.4813 111.029C32.5445 110.907 34.9959 107.334 35.6756 105.804C36.2008 104.622 36.0958 103.747 35.9658 103.599C35.7743 103.379 35.7903 103.042 36.0068 102.848C36.2232 102.654 36.5523 102.665 36.749 102.88C37.287 103.467 37.2575 104.817 36.6778 106.164C35.9301 107.903 33.2461 111.96 24.4981 112.093C24.3839 112.095 24.2702 112.095 24.1582 112.095Z" fill="#383B54"/>
<path d="M4.65318 145.645C4.64633 145.645 4.63966 145.645 4.633 145.645C4.33992 145.633 4.11097 145.386 4.12196 145.093C4.36947 138.457 5.2813 132.534 6.0139 127.775L6.12036 127.085C6.35184 125.578 6.61177 124.127 6.86918 122.696C7.41444 119.657 7.92981 116.786 8.13426 113.619C8.20902 112.455 8.01015 111.234 7.81758 110.053C7.38905 107.419 6.94592 104.695 9.51192 102.569C9.73763 102.381 10.0723 102.412 10.2602 102.639C10.447 102.865 10.4158 103.201 10.1896 103.388C8.09247 105.127 8.4513 107.33 8.86687 109.881C9.0688 111.122 9.27739 112.403 9.19489 113.687C8.98683 116.914 8.46589 119.813 7.91522 122.884C7.65943 124.307 7.4004 125.749 7.17054 127.247L7.06463 127.937C6.33599 132.669 5.42883 138.557 5.18349 145.132C5.17304 145.419 4.93761 145.645 4.65318 145.645Z" fill="#383B54"/>
<path d="M18.217 193.927C13.9655 193.927 9.88201 193.114 6.41552 191.226C2.06114 188.854 -0.211787 182.726 0.0155415 173.971C0.0596743 172.28 0.0892177 170.037 0.122903 167.452C0.242872 158.341 0.423905 144.575 1.52614 136.148C2.387 129.563 3.38062 124.266 4.17987 120.011C4.68173 117.335 5.0782 115.222 5.29256 113.575C5.35903 113.062 5.33723 112.348 5.31166 111.523C5.21006 108.201 5.05587 103.182 10.363 101.264C10.6397 101.167 10.9448 101.308 11.0433 101.583C11.1429 101.86 11.0003 102.165 10.7243 102.265C6.14171 103.92 6.27609 108.295 6.37408 111.49C6.4011 112.362 6.4238 113.114 6.34616 113.712C6.12856 115.39 5.72957 117.516 5.22411 120.207C4.4281 124.449 3.43701 129.73 2.57957 136.285C1.48562 144.65 1.30512 158.381 1.18569 167.466C1.15147 170.057 1.12193 172.304 1.07833 173.997C0.861992 182.334 2.93767 188.121 6.92403 190.291C17.3592 195.979 33.1331 191.082 40.9996 185.787C48.1478 180.975 55.9977 172.188 60.266 166.059C60.4335 165.817 60.7642 165.759 61.0058 165.927C61.2461 166.095 61.3054 166.427 61.1376 166.668C56.8144 172.875 48.8541 181.783 41.5922 186.67C35.3598 190.864 26.4714 193.927 18.217 193.927Z" fill="#383B54"/>
<path d="M36.8214 171.065C36.8048 171.065 36.7881 171.064 36.771 171.063C36.4788 171.035 36.2644 170.776 36.2914 170.484C36.8981 164.026 37.0896 158.061 36.894 151.71C36.8115 149 36.1545 146.222 35.5194 143.535C34.8313 140.624 34.1197 137.614 34.1023 134.607C34.0664 128.622 35.0451 122.71 35.9917 116.991C36.3383 114.898 36.6964 112.734 36.9999 110.597C37.539 106.811 37.2813 103.46 36.4256 103.127C36.152 103.021 36.0171 102.712 36.1235 102.438C36.2293 102.165 36.5366 102.029 36.8117 102.136C38.9797 102.98 38.3093 108.94 38.0524 110.746C37.7467 112.897 37.3877 115.066 37.0404 117.165C36.1012 122.84 35.1298 128.707 35.1649 134.601C35.182 137.487 35.8795 140.437 36.5535 143.29C37.2008 146.028 37.8701 148.86 37.9568 151.677C38.1529 158.073 37.9604 164.081 37.3501 170.583C37.3243 170.859 37.0929 171.065 36.8214 171.065Z" fill="#383B54"/>
<path d="M34.7736 133.432C34.6408 133.432 34.5074 133.382 34.4042 133.282C34.1936 133.079 34.1878 132.741 34.3917 132.53C37.209 129.613 39.5852 125.384 41.6816 121.652C42.0535 120.99 42.4169 120.343 42.773 119.721C43.3615 118.693 44.0132 117.535 44.7101 116.294C48.0869 110.29 52.2896 102.816 55.8172 98.4933C59.9698 93.4059 67.5778 92.2476 73.7416 91.8063C74.6747 91.7397 75.6202 91.6878 76.5967 91.6348C80.4222 91.4271 84.7579 91.1903 90.7401 89.8681C94.8257 88.9633 97.8785 87.3172 100.572 85.8645C102.822 84.6509 104.947 83.5045 107.335 82.953C107.622 82.8881 107.906 83.0657 107.972 83.3518C108.038 83.6379 107.86 83.9236 107.574 83.9896C105.326 84.509 103.262 85.6219 101.076 86.8009C98.3218 88.2862 95.1995 89.97 90.9698 90.9069C84.9025 92.2478 80.5206 92.4866 76.6545 92.6976C75.6842 92.7495 74.7448 92.8014 73.8174 92.8677C67.8664 93.2936 60.536 94.3936 56.6404 99.1663C53.1709 103.418 48.8159 111.162 45.6366 116.816C44.9377 118.059 44.2849 119.219 43.6953 120.249C43.3408 120.869 42.9785 121.514 42.6082 122.173C40.4804 125.96 38.0684 130.254 35.1557 133.269C35.0512 133.378 34.9127 133.432 34.7736 133.432Z" fill="#383B54"/>
<path d="M105.858 191.683C105.564 191.683 105.327 191.445 105.327 191.152C105.327 187.498 110.096 173.32 121.121 157.098L122.472 155.112C132.645 140.154 142.254 126.026 149.579 109.531C152.506 102.94 155.242 93.6748 154.331 88.9105C154.276 88.6228 154.465 88.3433 154.753 88.2883C155.036 88.2344 155.32 88.4223 155.375 88.7111C156.329 93.6999 153.543 103.226 150.551 109.964C143.186 126.545 133.551 140.712 123.35 155.711L121.999 157.696C110.881 174.056 106.389 188.066 106.389 191.152C106.389 191.445 106.152 191.683 105.858 191.683Z" fill="#383B54"/>
<path d="M82.2072 272.44C85.1736 262.135 90.477 248.491 95.2793 236.136C99.6789 224.817 103.478 215.042 104.362 210.616C105.987 202.466 106.639 191.979 106.765 171.923C106.882 153.525 106.996 147.393 107.528 124.28C107.547 123.431 107.564 122.41 107.584 121.252C107.755 110.879 108.114 89.2937 112.164 82.9038C112.322 82.6556 112.248 82.3267 112 82.1695C111.752 82.0116 111.424 82.0859 111.266 82.3336C107.056 88.9759 106.695 110.765 106.521 121.235C106.502 122.39 106.485 123.409 106.465 124.255C105.933 147.375 105.819 153.51 105.702 171.917C105.576 191.898 104.931 202.331 103.319 210.409C102.454 214.743 98.6703 224.478 94.2884 235.751C89.4338 248.241 84.0698 262.043 81.1028 272.44H82.2072V272.44Z" fill="#383B54"/>
<path d="M98.9747 272.44C97.5187 260.049 97.0191 239.149 98.2367 228.556C98.2704 228.264 98.0612 228 97.7696 227.966C97.4753 227.938 97.2148 228.142 97.1811 228.433C95.9342 239.281 96.4155 259.944 97.8923 272.44H98.9747Z" fill="#383B54"/>
<path d="M105.488 198.247C105.428 198.247 105.367 198.236 105.306 198.214C105.031 198.115 104.888 197.809 104.989 197.533C107.366 190.99 111.479 184.217 118.323 175.571C124.111 168.259 131.236 162.184 138.074 156.707C141.655 153.841 147.558 148.176 153.385 140.871C160.949 131.388 166.903 121.778 166.957 120.261C166.238 119.688 163.546 120.339 161.369 120.869C159.152 121.405 156.856 121.953 155.098 121.849C150.766 121.573 149.307 113.719 149.307 110.179C149.307 109.885 149.545 109.647 149.839 109.647C150.132 109.647 150.37 109.885 150.37 110.179C150.37 113.876 151.973 120.584 155.165 120.788C156.761 120.889 158.981 120.354 161.119 119.834C164.165 119.097 166.795 118.458 167.821 119.62C169.354 121.362 158.224 136.509 154.215 141.533C148.334 148.908 142.364 154.636 138.738 157.537C131.949 162.974 124.878 169.003 119.157 176.232C112.385 184.784 108.324 191.466 105.987 197.896C105.909 198.113 105.705 198.247 105.488 198.247Z" fill="#383B54"/>
<path d="M104.296 206.782C104.016 206.782 103.781 206.562 103.766 206.278C103.225 196.212 102.087 192.065 100.021 184.536L99.2641 181.766C98.4074 178.603 97.6953 176.094 97.0861 173.948C95.892 169.739 95.1032 166.958 94.3871 163.374C92.7618 155.242 92.1738 148.691 91.6057 142.356C91.3499 139.502 91.0851 136.55 90.7286 133.489C90.3597 130.318 89.7527 126.793 89.1656 123.385C87.6352 114.5 86.8505 109.417 88.5238 108.279C90.5989 106.861 92.9709 109.269 94.7036 111.023C95.1302 111.455 95.533 111.863 95.8603 112.141C97.1529 113.234 98.3076 113.65 99.5001 113.439C101.676 113.059 104.09 110.516 106.879 105.669C107.026 105.413 107.349 105.327 107.605 105.472C107.859 105.619 107.947 105.944 107.8 106.199C104.803 111.409 102.224 114.043 99.6831 114.487C98.1818 114.755 96.7049 114.248 95.174 112.953C94.8103 112.646 94.3909 112.221 93.9473 111.771C92.4783 110.284 90.4694 108.244 89.1211 109.158C87.9322 109.967 89.1964 117.306 90.2125 123.204C90.8019 126.626 91.4117 130.165 91.7839 133.366C92.142 136.441 92.4071 139.4 92.664 142.26C93.2296 148.567 93.8145 155.089 95.4289 163.166C96.1366 166.709 96.9213 169.473 98.108 173.657C98.7183 175.806 99.4313 178.319 100.289 181.487L101.045 184.255C103.062 191.604 104.28 196.041 104.827 206.222C104.842 206.515 104.618 206.765 104.325 206.781C104.315 206.782 104.306 206.782 104.296 206.782Z" fill="#383B54"/>
<path d="M100.472 113.774C100.283 113.774 100.1 113.673 100.004 113.495C98.0823 109.945 95.2223 107.472 93.1342 105.666C92.8275 105.4 92.5407 105.151 92.2806 104.921C92.1539 104.808 91.9769 104.69 91.7881 104.564C91.2475 104.198 90.5743 103.743 90.387 103.09C89.8785 101.308 91.702 100.123 92.9085 99.339C93.1629 99.1738 93.3947 99.0242 93.5732 98.8872C94.1774 98.425 94.759 98.0002 95.3283 97.5847C97.8062 95.7763 99.9462 94.2141 102.739 90.4665C104.201 88.5034 105.344 86.4468 106.45 84.4582C107.976 81.7113 109.418 79.1168 111.53 77.0497C111.74 76.844 112.078 76.8481 112.282 77.058C112.487 77.2678 112.483 77.6048 112.273 77.8099C110.272 79.769 108.867 82.2976 107.378 84.9749C106.256 86.9941 105.096 89.0818 103.591 91.1021C100.702 94.9784 98.3963 96.6611 95.9548 98.4436C95.3917 98.8549 94.8168 99.2746 94.219 99.7327C94.0223 99.8832 93.7676 100.049 93.4878 100.231C92.2382 101.043 91.1391 101.85 91.4094 102.797C91.49 103.078 92.0057 103.427 92.3829 103.682C92.6158 103.84 92.8318 103.987 92.9874 104.126C93.2432 104.354 93.526 104.599 93.8292 104.861C95.8582 106.615 98.9241 109.267 100.939 112.988C101.079 113.247 100.983 113.569 100.725 113.709C100.644 113.753 100.558 113.774 100.472 113.774Z" fill="#383B54"/>
<path d="M154.702 121.397C154.592 121.397 154.482 121.364 154.388 121.294C154.151 121.12 154.1 120.787 154.275 120.551C157.29 116.45 162.034 114.387 165.498 112.88C166.438 112.471 167.327 112.085 168.043 111.717C168.586 111.438 168.886 111.165 168.934 110.906C169.036 110.366 168.196 109.415 167.224 108.314C166.155 107.104 164.823 105.597 163.698 103.585C161.667 99.9508 160.065 93.6398 159.747 92.1491C158.351 85.6049 156.195 83.9078 154.294 82.4109C153.695 81.9393 153.131 81.4948 152.622 80.9281C152.426 80.7096 152.445 80.3734 152.663 80.1771C152.88 79.9802 153.216 79.999 153.413 80.2177C153.859 80.7152 154.39 81.1328 154.951 81.5746C156.893 83.1036 159.311 85.0066 160.787 91.9267C161.097 93.3849 162.659 99.5475 164.626 103.066C165.695 104.978 166.984 106.437 168.02 107.61C169.272 109.027 170.177 110.051 169.978 111.102C169.863 111.717 169.402 112.212 168.528 112.662C167.782 113.046 166.878 113.44 165.921 113.855C162.568 115.314 157.975 117.311 155.13 121.18C155.026 121.323 154.865 121.397 154.702 121.397Z" fill="#383B54"/>
<path d="M108.35 182.518C108.294 182.518 108.237 182.509 108.18 182.49C107.902 182.396 107.753 182.094 107.847 181.816C109.322 177.438 110.581 170.419 111.799 163.633C112.604 159.144 113.365 154.904 114.19 151.328C115.407 146.049 117.894 141.207 120.298 136.524C122.154 132.913 124.072 129.177 125.359 125.311C125.806 123.971 126.293 121.993 126.808 119.899C128.022 114.964 129.399 109.371 131.327 106.96C132.971 104.905 134.683 104.143 137.055 103.09C138.755 102.335 140.869 101.395 143.665 99.6809C148.421 96.7653 151.513 93.2651 152.147 90.0783C152.497 88.3199 152.111 86.6523 151 85.1212C150.828 84.8834 150.88 84.551 151.118 84.3779C151.353 84.2065 151.687 84.257 151.86 84.4958C153.152 86.2772 153.599 88.2254 153.189 90.286C152.488 93.8133 149.301 97.4727 144.219 100.589C141.365 102.339 139.214 103.293 137.486 104.061C135.169 105.091 133.638 105.771 132.157 107.625C130.375 109.853 128.97 115.564 127.841 120.153C127.32 122.269 126.828 124.267 126.368 125.648C125.055 129.591 123.117 133.363 121.244 137.011C118.869 141.635 116.413 146.417 115.225 151.567C114.406 155.117 113.648 159.345 112.845 163.821C111.62 170.646 110.354 177.704 108.853 182.157C108.779 182.378 108.572 182.518 108.35 182.518Z" fill="#383B54"/>
<path d="M124.252 129.465C124.036 129.465 123.834 129.333 123.754 129.119C121.926 124.208 122.96 119.253 123.96 114.461C124.752 110.663 125.502 107.074 124.825 103.69C124.484 101.988 123.355 100.676 120.003 96.7817L118.491 95.0222C114.425 90.2745 112.648 84.8588 113.618 80.164C113.677 79.8763 113.959 79.6908 114.246 79.7506C114.534 79.8103 114.718 80.0919 114.659 80.3789C114.232 82.447 113.829 87.9447 119.298 94.3305L120.809 96.088C124.297 100.14 125.472 101.505 125.867 103.482C126.586 107.079 125.816 110.771 125 114.678C124.031 119.322 123.03 124.125 124.75 128.747C124.853 129.022 124.713 129.329 124.438 129.432C124.377 129.455 124.314 129.465 124.252 129.465Z" fill="#383B54"/>
<path d="M121.499 122.12C121.493 122.12 121.486 122.12 121.478 122.12C121.186 122.109 120.957 121.862 120.968 121.568C121.067 118.973 120.857 117.183 120.687 115.743C120.492 114.084 120.352 112.885 120.803 111.519C120.932 111.125 121.132 110.643 121.349 110.118C121.844 108.921 122.459 107.431 122.433 106.426C122.392 104.825 121.963 103.743 121.192 103.295C120.552 102.922 119.834 103.085 119.645 103.187C117.598 104.288 115.741 106.805 114.102 109.026C112.92 110.627 111.9 112.011 110.919 112.747C110.557 113.017 110.237 112.917 110.117 112.862C109.466 112.559 109.379 111.562 109.173 108.147C108.988 105.067 108.735 100.849 107.772 96.335C107.711 96.0473 107.894 95.7648 108.181 95.7035C108.466 95.6442 108.75 95.8261 108.811 96.1127C109.791 100.706 110.047 104.97 110.234 108.083C110.321 109.527 110.41 111.012 110.557 111.669C111.354 110.959 112.277 109.709 113.248 108.393C114.952 106.083 116.885 103.465 119.142 102.25C119.636 101.985 120.731 101.798 121.725 102.375C122.498 102.824 123.432 103.885 123.496 106.399C123.527 107.63 122.892 109.168 122.331 110.524C122.125 111.022 121.935 111.479 121.812 111.854C121.435 112.995 121.557 114.039 121.743 115.618C121.916 117.094 122.132 118.932 122.031 121.609C122.019 121.895 121.783 122.12 121.499 122.12Z" fill="#383B54"/>
<path d="M140.886 118.703C140.572 118.703 140.259 118.62 139.941 118.443C139.121 117.986 138.631 116.065 137.784 112.093C137.522 110.868 137.253 109.601 136.985 108.61C136.601 107.187 135.882 106.266 135.063 106.143C133.967 105.977 132.548 107.15 131.109 109.446C130.954 109.697 130.627 109.771 130.377 109.615C130.128 109.459 130.053 109.131 130.209 108.881C132.358 105.451 134.132 104.934 135.219 105.091C136.488 105.28 137.506 106.462 138.01 108.332C138.286 109.352 138.559 110.633 138.823 111.871C139.273 113.978 139.952 117.164 140.462 117.516C141.558 118.123 143.148 116.039 145.355 113.162C146.776 111.312 148.544 109.009 150.745 106.679C150.947 106.468 151.282 106.455 151.496 106.659C151.709 106.86 151.718 107.197 151.517 107.411C149.353 109.7 147.603 111.979 146.198 113.81C144.011 116.658 142.442 118.703 140.886 118.703Z" fill="#383B54"/>
<path d="M135.806 90.8715C135.563 90.8715 135.32 90.8674 135.073 90.8591C123.512 90.4518 115.081 79.5202 112.14 69.5365C112.057 69.2545 112.218 68.959 112.499 68.8757C112.784 68.7932 113.077 68.9552 113.159 69.2352C115.996 78.8654 124.076 89.4071 135.111 89.7955C151.547 90.3781 157.15 69.9762 158.471 63.7104C158.532 63.4233 158.811 63.2399 159.101 63.2996C159.387 63.3603 159.571 63.6425 159.511 63.9297C158.167 70.3091 152.518 90.8715 135.806 90.8715Z" fill="#383B54"/>
<path d="M110.948 66.8342C110.935 66.8342 110.921 66.8337 110.907 66.8326C107.043 66.5366 102.734 62.1368 102.749 56.6904C102.757 53.972 103.681 51.994 105.284 51.2628C106.752 50.5943 108.591 51.0764 110.333 52.5846C110.555 52.7766 110.579 53.1126 110.388 53.3351C110.195 53.5574 109.86 53.5812 109.638 53.3895C108.223 52.1638 106.795 51.7407 105.725 52.2309C104.516 52.7825 103.818 54.409 103.812 56.6936C103.798 61.5739 107.589 65.5121 110.988 65.7722C111.281 65.7946 111.5 66.0502 111.477 66.343C111.456 66.6219 111.223 66.8342 110.948 66.8342Z" fill="#383B54"/>
<path d="M158.811 66.6172C158.633 66.6172 158.46 66.5283 158.359 66.3668C158.205 66.1175 158.281 65.7899 158.529 65.6342C158.562 65.6134 161.909 63.471 163.103 58.9336C163.648 56.8599 163.551 55.3059 162.822 54.4402C162.181 53.6789 161.224 53.6419 160.708 53.685C160.413 53.711 160.158 53.4939 160.133 53.2015C160.107 52.9086 160.324 52.651 160.617 52.6255C161.843 52.517 162.942 52.9315 163.635 53.7546C164.61 54.9127 164.776 56.7465 164.131 59.204C162.825 64.1669 159.242 66.4427 159.09 66.5372C159.003 66.5913 158.906 66.6172 158.811 66.6172Z" fill="#383B54"/>
<path d="M136.643 65.0591C136.428 65.0591 136.226 64.9277 136.146 64.7147C136.042 64.44 136.182 64.133 136.455 64.0297C137.456 63.652 138.075 63.1894 138.294 62.6535C138.599 61.9071 138.16 60.9572 137.736 60.0385L137.679 59.9159C137.029 58.5033 136.55 56.6482 137.935 53.5987C138.058 53.3311 138.372 53.2132 138.639 53.3349C138.906 53.4564 139.024 53.7717 138.903 54.0391C137.699 56.6908 138.067 58.2167 138.644 59.4703L138.7 59.5924C139.196 60.6654 139.758 61.8817 139.277 63.0564C138.937 63.8884 138.137 64.5325 136.831 65.0246C136.769 65.0483 136.706 65.0591 136.643 65.0591Z" fill="#383B54"/>
<path d="M130.916 44.9923C130.792 44.9923 130.668 44.9492 130.567 44.8619C127.999 42.6288 123.93 43.3481 122.137 44.0404C121.868 44.1489 121.557 44.0098 121.45 43.7356C121.346 43.4619 121.482 43.154 121.756 43.0483C123.903 42.2196 128.324 41.5003 131.264 44.059C131.485 44.2517 131.509 44.5877 131.316 44.8095C131.211 44.9306 131.064 44.9923 130.916 44.9923Z" fill="#383B54"/>
<path d="M145.151 45.1751C144.997 45.1751 144.845 45.1086 144.74 44.9802C144.554 44.7532 144.587 44.4183 144.814 44.2319C147.876 41.7199 151.978 42.3639 153.639 43.7702C153.863 43.9598 153.892 44.2953 153.702 44.5196C153.513 44.7455 153.177 44.7731 152.954 44.5825C151.736 43.5531 148.199 42.8286 145.488 45.0547C145.388 45.1356 145.27 45.1751 145.151 45.1751Z" fill="#383B54"/>
<path d="M110.545 61.2664C110.318 61.2664 110.108 61.1199 110.037 60.8915C109.288 58.4583 107.059 57.3854 107.037 57.375C106.772 57.2504 106.657 56.934 106.781 56.6681C106.905 56.4022 107.22 56.287 107.485 56.4105C107.594 56.4608 110.161 57.6813 111.054 60.5776C111.14 60.8586 110.982 61.1561 110.702 61.2428C110.65 61.2592 110.597 61.2664 110.545 61.2664Z" fill="#383B54"/>
<path d="M151.179 93.5077C150.938 93.5077 150.72 93.3437 150.662 93.0996C149.956 90.1342 150.318 83.2134 150.334 82.9204C150.349 82.6275 150.601 82.4104 150.892 82.4176C151.186 82.4337 151.41 82.6841 151.395 82.9774C151.392 83.0475 151.025 90.0374 151.696 92.8522C151.764 93.1378 151.588 93.4244 151.302 93.4931C151.261 93.5036 151.219 93.5077 151.179 93.5077Z" fill="#383B54"/>
<path d="M114.718 88.0059C114.709 88.0059 114.701 88.0059 114.692 88.0048C114.399 87.9913 114.172 87.7419 114.186 87.449C114.451 81.8806 113.367 76.1325 112.575 71.9358C112.414 71.0809 112.264 70.2843 112.137 69.5583C112.087 69.2691 112.28 68.9933 112.569 68.9428C112.861 68.8923 113.134 69.0856 113.184 69.3753C113.31 70.0971 113.459 70.8891 113.62 71.7384C114.422 75.987 115.519 81.8058 115.248 87.4988C115.235 87.7845 115 88.0059 114.718 88.0059Z" fill="#383B54"/>
<path d="M159.642 57.3998C159.602 57.3998 159.56 57.3951 159.519 57.3852C159.233 57.3167 159.057 57.0293 159.125 56.7438C159.542 55.0081 159.591 46.8239 159.217 41.901C159.195 41.6081 159.414 41.3526 159.707 41.3303C159.989 41.3043 160.255 41.5277 160.277 41.8199C160.631 46.479 160.638 54.992 160.159 56.992C160.101 57.2358 159.883 57.3998 159.642 57.3998Z" fill="#383B54"/>
<path d="M101.163 33.4197C101.017 33.4197 100.873 33.3605 100.768 33.2435C100.571 33.0249 100.589 32.6888 100.807 32.4925C101.917 31.4938 102.182 28.9953 102.49 26.102C102.845 22.7554 103.288 18.5897 105.272 15.1147C108.919 8.7309 115.364 4.95283 119.947 6.51764C120.226 6.6121 120.374 6.91443 120.28 7.19223C120.184 7.47058 119.883 7.62075 119.605 7.52412C115.488 6.12085 109.597 9.68727 106.195 15.6425C104.321 18.9238 103.909 22.7976 103.547 26.2147C103.203 29.4534 102.931 32.0122 101.518 33.283C101.417 33.3744 101.289 33.4197 101.163 33.4197Z" fill="#383B54"/>
<path d="M105.963 51.8289C105.75 51.8289 105.548 51.6991 105.467 51.4877C105.334 51.1406 102.216 42.9268 102.903 37.0426C102.937 36.7518 103.204 36.5403 103.493 36.5764C103.784 36.6106 103.993 36.8744 103.958 37.1663C103.301 42.7927 106.428 51.0238 106.459 51.1064C106.565 51.3806 106.428 51.6881 106.154 51.7936C106.091 51.8176 106.027 51.8289 105.963 51.8289Z" fill="#383B54"/>
<path d="M162.408 12.3495C160.227 12.3495 156.531 11.4228 153.711 9.30243C147.752 4.81641 132.975 -4.42063 124.504 6.69021C124.324 6.92385 123.991 6.96802 123.759 6.79044C123.526 6.61233 123.481 6.27882 123.659 6.04518C130.03 -2.31048 141.217 -1.43236 154.351 8.45242C157.518 10.8346 161.714 11.5186 163.187 11.2236C163.469 11.169 163.754 11.3545 163.811 11.6422C163.868 11.9305 163.681 12.2103 163.393 12.2676C163.119 12.3215 162.785 12.3495 162.408 12.3495Z" fill="#383B54"/>
<path d="M110.16 48.3312C109.851 48.3312 109.531 48.3135 109.199 48.2778C108.906 48.2461 108.696 47.9838 108.727 47.6919C108.759 47.3995 109.026 47.1896 109.313 47.2203C115.089 47.8399 116.562 42.0743 118.118 35.9636C119.561 30.297 121.063 24.4538 126.523 24.9161C126.814 24.9415 127.031 25.1996 127.005 25.492C126.98 25.785 126.737 26.0114 126.429 25.9756C121.895 25.5813 120.542 30.7484 119.147 36.2257C117.698 41.9178 116.065 48.3312 110.16 48.3312Z" fill="#383B54"/>
<path d="M160.381 39.2717C151.926 39.272 148.444 34.0606 145.622 29.8372C143.073 26.0258 141.39 23.505 137.132 26.0703C136.881 26.2236 136.554 26.1421 136.403 25.8892C136.252 25.6373 136.333 25.3107 136.584 25.1596C141.709 22.0725 143.931 25.3965 146.505 29.2463C149.302 33.4321 152.776 38.6587 161.478 38.1779C161.775 38.1738 162.022 38.3883 162.037 38.6813C162.052 38.9742 161.828 39.225 161.534 39.2405C161.141 39.2614 160.755 39.2717 160.381 39.2717Z" fill="#383B54"/>
<path d="M162.436 53.4337C162.401 53.4337 162.365 53.43 162.329 53.4228C162.041 53.364 161.856 53.0831 161.914 52.7954C162.436 50.2401 163.033 47.7318 163.609 45.306C166.465 33.2889 168.93 22.9103 160.309 15.7762C160.083 15.5893 160.05 15.2538 160.237 15.0279C160.426 14.8004 160.76 14.7697 160.986 14.9567C170.118 22.5126 167.58 33.1892 164.643 45.5522C164.069 47.9697 163.474 50.4698 162.956 53.0085C162.905 53.2603 162.684 53.4337 162.436 53.4337Z" fill="#383B54"/>
<path d="M128.027 20.5499C127.775 20.5499 127.551 20.3693 127.505 20.1116C126.871 16.5703 125.199 13.2361 122.916 10.9644C122.707 10.7572 122.707 10.4205 122.914 10.2124C123.12 10.0042 123.457 10.0031 123.665 10.2103C126.099 12.6319 127.88 16.1729 128.551 19.9245C128.603 20.2133 128.411 20.4897 128.122 20.5414C128.091 20.5474 128.058 20.5499 128.027 20.5499Z" fill="#383B54"/>
<path d="M132.037 25.7387C131.751 25.7387 131.515 25.5111 131.506 25.2231C131.456 23.5613 132.284 21.7408 133.667 20.4731C134.876 19.3642 136.293 18.8418 137.68 19.0044C137.972 19.0386 138.181 19.3029 138.146 19.5948C138.112 19.8867 137.858 20.0949 137.556 20.0606C136.486 19.9314 135.363 20.3603 134.385 21.2568C133.224 22.3219 132.527 23.8295 132.569 25.1908C132.577 25.4848 132.347 25.73 132.053 25.7387C132.048 25.7387 132.043 25.7387 132.037 25.7387Z" fill="#383B54"/>
<path d="M136.522 81.1193C133.733 81.1193 131.15 79.539 129.586 76.8669C128.457 74.9392 128.145 72.8846 128.811 71.754C129.763 70.1343 137.296 70.1768 139.931 70.3731C144.451 70.7133 144.814 71.6201 144.951 71.9614C145.398 73.0733 144.853 75.146 143.627 77.0026C141.937 79.5604 139.405 81.0603 136.679 81.118C136.627 81.1189 136.574 81.1193 136.522 81.1193ZM129.725 72.2956C129.341 72.9531 129.483 74.588 130.502 76.3289C131.899 78.7142 134.206 80.1124 136.656 80.0542C139.904 79.9862 141.861 77.7452 142.739 76.4157C143.836 74.7558 144.23 73.0165 143.965 72.3571C143.87 72.1795 142.931 71.6596 139.791 71.4295C134.947 71.0746 130.167 71.7082 129.725 72.2956ZM129.268 72.0236H129.279H129.268Z" fill="#383B54"/>
<path d="M146.804 54.8909C146.638 54.8909 146.473 54.8125 146.369 54.6656C146.201 54.4253 146.258 54.0932 146.498 53.9245C148.439 52.5565 150.968 52.6542 152.497 53.3231C152.766 53.4404 152.888 53.7541 152.771 54.0231C152.653 54.2931 152.34 54.4168 152.071 54.2973C151.163 53.9 148.955 53.4934 147.11 54.7938C147.017 54.8592 146.91 54.8909 146.804 54.8909Z" fill="#383B54"/>
<path d="M128.323 55.0047C128.206 55.0047 128.087 54.9663 127.99 54.8868C126.887 53.9987 124.769 53.4182 122.723 54.2381C122.451 54.3492 122.14 54.2152 122.031 53.9427C121.922 53.6699 122.054 53.3605 122.326 53.2515C124.787 52.2641 127.277 52.9472 128.656 54.0589C128.884 54.2428 128.921 54.5778 128.737 54.8064C128.632 54.9372 128.478 55.0047 128.323 55.0047Z" fill="#383B54"/>
<path d="M110.249 87.0684C110.138 87.0684 110.026 87.0336 109.931 86.9621C109.696 86.7859 109.648 86.4526 109.824 86.2179C110.861 84.8334 111.31 83.2613 111.707 81.8741C112.111 80.4595 112.46 79.2374 113.357 78.6396C113.601 78.4766 113.931 78.5419 114.094 78.787C114.257 79.0317 114.19 79.3619 113.946 79.5244C113.375 79.9057 113.075 80.9531 112.729 82.1663C112.328 83.5685 111.829 85.3141 110.674 86.8555C110.57 86.9952 110.411 87.0684 110.249 87.0684Z" fill="#383B54"/>
<path d="M154.938 93.1171C154.689 93.1171 154.466 92.9395 154.417 92.6852C154.413 92.6601 153.944 90.2255 153.146 87.9383L152.97 87.4191C152.551 86.168 152.22 85.1797 151.078 84.5087C150.825 84.3601 150.74 84.034 150.888 83.7811C151.038 83.5262 151.366 83.444 151.616 83.5916C153.101 84.464 153.546 85.7941 153.977 87.0805L154.149 87.5875C154.974 89.9514 155.441 92.3841 155.461 92.4858C155.516 92.7746 155.327 93.0529 155.039 93.1081C155.005 93.114 154.971 93.1171 154.938 93.1171Z" fill="#383B54"/>
<path d="M98.4605 211.428C98.4294 211.428 98.3977 211.426 98.3662 211.426C96.9474 211.384 95.6319 210.38 95.1675 208.986C94.8198 207.944 94.864 206.98 95.2988 206.121C95.8407 205.052 96.9968 204.164 98.7419 203.476C98.2334 203.235 97.6543 203.109 97.0263 203.109C96.7327 203.109 96.4949 202.871 96.4949 202.577C96.4949 202.283 96.7325 202.045 97.0263 202.045C98.7086 202.045 100.124 202.768 101.012 204.081C101.983 205.514 102.146 207.41 101.451 209.151C100.87 210.603 99.7838 211.428 98.4605 211.428ZM99.7766 204.232C97.9147 204.856 96.7273 205.653 96.2469 206.602C95.9412 207.206 95.9178 207.875 96.1754 208.649C96.4971 209.614 97.4311 210.335 98.3973 210.363C99.2965 210.414 100.039 209.819 100.464 208.756C101.028 207.343 100.904 205.819 100.132 204.677C100.024 204.517 99.9054 204.369 99.7766 204.232Z" fill="#383B54"/>
<path d="M176.173 272.44C175.415 266.987 174.405 260.897 174.337 260.491C174.288 260.2 174.007 260.001 173.726 260.054C173.436 260.102 173.241 260.376 173.289 260.666C173.787 263.662 174.526 268.331 175.099 272.44H176.173V272.44Z" fill="#383B54"/>
</svg>
